<svg width="52" height="53" viewBox="0 0 52 53" fill="none" xmlns="http://www.w3.org/2000/svg">
<g id="Group 11">
<rect id="Rectangle 69" y="0.395996" width="52" height="52" rx="15" fill="#EBD96B"/>
<path id="Vector" d="M25.946 20.7268C22.8406 20.7268 20.3357 23.2317 20.3357 26.3372C20.3357 29.4426 22.8406 31.9475 25.946 31.9475C29.0515 31.9475 31.5564 29.4426 31.5564 26.3372C31.5564 23.2317 29.0515 20.7268 25.946 20.7268ZM25.946 29.9846C23.9392 29.9846 22.2986 28.3489 22.2986 26.3372C22.2986 24.3254 23.9343 22.6897 25.946 22.6897C27.9578 22.6897 29.5935 24.3254 29.5935 26.3372C29.5935 28.3489 27.9529 29.9846 25.946 29.9846ZM33.0945 20.4973C33.0945 21.2249 32.5085 21.8059 31.7859 21.8059C31.0584 21.8059 30.4773 21.22 30.4773 20.4973C30.4773 19.7747 31.0632 19.1887 31.7859 19.1887C32.5085 19.1887 33.0945 19.7747 33.0945 20.4973ZM36.8103 21.8254C36.7273 20.0725 36.3269 18.5198 35.0427 17.2405C33.7634 15.9612 32.2107 15.5608 30.4578 15.4729C28.6511 15.3704 23.2361 15.3704 21.4294 15.4729C19.6814 15.5559 18.1287 15.9563 16.8445 17.2356C15.5603 18.5149 15.1648 20.0676 15.0769 21.8206C14.9744 23.6272 14.9744 29.0422 15.0769 30.8489C15.1599 32.6018 15.5603 34.1545 16.8445 35.4338C18.1287 36.7131 19.6765 37.1135 21.4294 37.2014C23.2361 37.304 28.6511 37.304 30.4578 37.2014C32.2107 37.1184 33.7634 36.718 35.0427 35.4338C36.322 34.1545 36.7224 32.6018 36.8103 30.8489C36.9128 29.0422 36.9128 23.6321 36.8103 21.8254ZM34.4763 32.7874C34.0955 33.7444 33.3582 34.4817 32.3962 34.8674C30.9558 35.4387 27.5378 35.3069 25.946 35.3069C24.3542 35.3069 20.9314 35.4338 19.4958 34.8674C18.5388 34.4866 17.8015 33.7493 17.4158 32.7874C16.8445 31.3469 16.9763 27.929 16.9763 26.3372C16.9763 24.7454 16.8494 21.3225 17.4158 19.887C17.7966 18.9299 18.5339 18.1926 19.4958 17.8069C20.9363 17.2356 24.3542 17.3674 25.946 17.3674C27.5378 17.3674 30.9607 17.2405 32.3962 17.8069C33.3533 18.1877 34.0906 18.925 34.4763 19.887C35.0476 21.3274 34.9158 24.7454 34.9158 26.3372C34.9158 27.929 35.0476 31.3518 34.4763 32.7874Z" fill="black"/>
</g>
</svg>
