<svg width="52" height="53" viewBox="0 0 52 53" fill="none" xmlns="http://www.w3.org/2000/svg">
<g id="Group 12">
<rect id="Rectangle 71" y="0.395996" width="52" height="52" rx="15" fill="#EBD96B"/>
<path id="Vector" d="M38.4302 21.4563C38.446 21.6783 38.446 21.9004 38.446 22.1225C38.446 28.8959 33.2906 36.7005 23.868 36.7005C20.9651 36.7005 18.2684 35.8598 16 34.4004C16.4125 34.448 16.809 34.4639 17.2373 34.4639C19.6326 34.4639 21.8375 33.6549 23.5983 32.2748C21.3458 32.2272 19.4581 30.752 18.8077 28.7215C19.125 28.769 19.4422 28.8008 19.7754 28.8008C20.2354 28.8008 20.6955 28.7373 21.1237 28.6263C18.776 28.1504 17.0152 26.0882 17.0152 23.5978V23.5343C17.6973 23.915 18.4905 24.153 19.3312 24.1847C17.9511 23.2646 17.0469 21.6942 17.0469 19.9175C17.0469 18.9658 17.3007 18.0933 17.7449 17.3319C20.2671 20.441 24.0583 22.4714 28.3096 22.6936C28.2303 22.3128 28.1827 21.9163 28.1827 21.5197C28.1827 18.6961 30.4669 16.396 33.3064 16.396C34.7816 16.396 36.1141 17.0146 37.05 18.014C38.208 17.7919 39.3184 17.3636 40.302 16.7767C39.9212 17.9665 39.1122 18.9658 38.0494 19.6003C39.0805 19.4893 40.0799 19.2037 40.9999 18.8072C40.302 19.8224 39.4295 20.7265 38.4302 21.4563Z" fill="black"/>
</g>
</svg>
